<svg xmlns="http://www.w3.org/2000/svg" viewBox="0 0 24 24">
  <rect width="24" height="24" fill="#16a34a"/>
  <path fill="white" fill-rule="evenodd" d="M12.516 2.17a.75.75 0 00-1.032 0 11.209 11.209 0 01-7.877 3.08.75.75 0 00-.722.515A12.74 12.74 0 002.25 9.75c0 5.942 4.064 10.933 9.563 12.348a.749.749 0 00.374 0c5.499-1.415 9.563-6.406 9.563-12.348 0-1.352-.272-2.636-.759-3.804a25.724 25.724 0 00-4.773-2.582.75.75 0 00-.722-.515 11.209 11.209 0 01-7.877-3.08l.125-.375z" clip-rule="evenodd" />
</svg>